<svg width="17" height="20" viewBox="0 0 17 20" fill="none" xmlns="http://www.w3.org/2000/svg"><path d="M16.5 5v12.5c0 .345-.068.67-.205.977a2.541 2.541 0 0 1-1.328 1.328c-.306.13-.629.195-.967.195H2.75c-.345 0-.67-.065-.977-.195a2.785 2.785 0 0 1-.79-.537 2.786 2.786 0 0 1-.538-.791A2.468 2.468 0 0 1 .25 17.5V5h2.5V3.75c0-.514.098-1 .293-1.455a3.9 3.9 0 0 1 .81-1.191A3.762 3.762 0 0 1 5.046.303C5.5.1 5.985 0 6.5 0c.677 0 1.305.17 1.885.508A3.636 3.636 0 0 1 10.25 0c.514 0 1 .1 1.455.303.456.195.853.462 1.191.8.339.34.606.736.801 1.192.202.456.303.94.303 1.455V5h2.5zm-3.75-1.25c0-.339-.068-.66-.205-.967-.13-.306-.31-.57-.537-.79a2.397 2.397 0 0 0-.791-.538 2.344 2.344 0 0 0-.967-.205c-.293 0-.57.049-.83.146.189.235.338.466.45.694.11.228.191.456.243.683.059.228.095.463.108.704.02.234.029.481.029.742V5h2.5V3.75zM4 5h5V3.75c0-.339-.068-.66-.205-.967-.13-.306-.31-.57-.537-.79a2.398 2.398 0 0 0-.791-.538A2.344 2.344 0 0 0 6.5 1.25c-.345 0-.67.068-.977.205a2.54 2.54 0 0 0-1.328 1.328C4.065 3.09 4 3.411 4 3.75V5zm7.832 13.75a2.496 2.496 0 0 1-.332-1.25V6.25h-10V17.5c0 .176.033.338.098.488.065.15.153.284.263.4.118.111.251.2.4.264.15.065.313.098.489.098h9.082zm3.418-12.5h-2.5V17.5c0 .176.033.338.098.488.065.15.153.284.263.4.117.111.251.2.4.264.15.065.313.098.489.098s.338-.033.488-.098c.15-.065.28-.153.39-.263.118-.117.21-.251.274-.4.065-.15.098-.313.098-.489V6.25z" fill="#fff"/></svg>