<svg width="16" height="15" viewBox="0 0 16 15" fill="none" xmlns="http://www.w3.org/2000/svg"><path d="M13.406.336A4.112 4.112 0 0 0 11.75 0c-.432 0-.818.05-1.156.148a3.944 3.944 0 0 0-.946.415c-.286.171-.562.38-.828.625-.26.244-.534.513-.82.804-.286-.291-.563-.56-.828-.804a4.672 4.672 0 0 0-.828-.625 3.802 3.802 0 0 0-.938-.415A4.124 4.124 0 0 0 4.25 0c-.589 0-1.14.112-1.656.336a4.332 4.332 0 0 0-1.352.914A4.177 4.177 0 0 0 0 4.25c0 .568.107 1.112.32 1.633.22.52.526.979.922 1.375L8 14.008l6.758-6.75c.396-.396.7-.854.914-1.375.219-.521.328-1.065.328-1.633 0-.583-.112-1.133-.336-1.648a4.114 4.114 0 0 0-.906-1.352 4.331 4.331 0 0 0-1.352-.914z" fill="#fff"/></svg>