<svg width="16" height="15" viewBox="0 0 16 15" fill="none" xmlns="http://www.w3.org/2000/svg"><path d="M11.75 0c.588 0 1.14.112 1.656.336.516.224.966.529 1.352.914.385.38.687.83.906 1.352.224.515.336 1.065.336 1.648 0 .568-.11 1.112-.328 1.633-.214.52-.518.979-.914 1.375L8 14.008l-6.758-6.75A4.256 4.256 0 0 1 .32 5.883 4.263 4.263 0 0 1 0 4.25a4.177 4.177 0 0 1 1.242-3c.386-.385.836-.69 1.352-.914A4.112 4.112 0 0 1 4.25 0c.432 0 .818.05 1.156.148.339.1.651.237.938.415.291.171.567.38.828.625.266.244.542.513.828.804.286-.291.56-.56.82-.804.266-.245.542-.454.828-.625.292-.178.607-.316.946-.415A4.124 4.124 0 0 1 11.75 0zm2.297 6.547c.307-.307.541-.659.703-1.055.162-.396.242-.81.242-1.242a3.19 3.19 0 0 0-.25-1.266 3.048 3.048 0 0 0-.695-1.023 3.093 3.093 0 0 0-1.031-.68 3.19 3.19 0 0 0-1.266-.25c-.438 0-.825.07-1.164.211a3.815 3.815 0 0 0-.938.54c-.286.223-.562.478-.828.765-.26.281-.534.568-.82.86a31.34 31.34 0 0 1-.82-.852 7.247 7.247 0 0 0-.836-.774 4.016 4.016 0 0 0-.946-.562A2.876 2.876 0 0 0 4.25 1c-.448 0-.87.086-1.266.258A3.222 3.222 0 0 0 1 4.25c0 .432.08.846.242 1.242.167.396.404.748.711 1.055L8 12.594l6.047-6.047z" fill="#911C2C"/></svg>