<svg width="17" height="17" viewBox="0 0 17 17" fill="none" xmlns="http://www.w3.org/2000/svg"><path d="M11 8.5a2.5 2.5 0 1 1-5 0 2.5 2.5 0 0 1 5 0z" fill="#DBDBDB"/><path d="M13.25 0h-9.5A3.754 3.754 0 0 0 0 3.75v9.5A3.754 3.754 0 0 0 3.75 17h9.5A3.754 3.754 0 0 0 17 13.25v-9.5A3.754 3.754 0 0 0 13.25 0zM8.5 13.188A4.693 4.693 0 0 1 3.812 8.5 4.693 4.693 0 0 1 8.5 3.812 4.693 4.693 0 0 1 13.188 8.5 4.693 4.693 0 0 1 8.5 13.188zm5.375-9.126a.937.937 0 1 1 0-1.874.937.937 0 0 1 0 1.874z" fill="#DBDBDB"/></svg>