<svg width="17" height="17" viewBox="0 0 17 17" fill="none" xmlns="http://www.w3.org/2000/svg"><path d="M16.525 13.389l-2.595-2.601c-.517-.516-1.373-.5-1.908.036l-1.307 1.31a40.032 40.032 0 0 1-.258-.144C9.63 11.53 8.5 10.903 7.312 9.71 6.12 8.515 5.492 7.381 5.033 6.553c-.048-.088-.094-.172-.14-.253l.877-.878.432-.433c.535-.537.55-1.394.034-1.912L3.641.476C3.126-.041 2.27-.025 1.734.512l-.732.737.02.02c-.245.314-.45.675-.602 1.065-.14.372-.228.726-.268 1.081-.343 2.847.955 5.45 4.478 8.98 4.87 4.88 8.794 4.512 8.963 4.494a4.376 4.376 0 0 0 1.081-.273 4.207 4.207 0 0 0 1.06-.601l.015.014.741-.727c.535-.537.55-1.395.035-1.913z" fill="#DBDBDB"/></svg>