<svg width="13" height="13" viewBox="0 0 13 13" fill="none" xmlns="http://www.w3.org/2000/svg"><path opacity=".8" fill-rule="evenodd" clip-rule="evenodd" d="M2 5.293C2 3.467 3.467 2 5.262 2c1.794 0 3.262 1.467 3.262 3.293 0 1.825-1.468 3.292-3.262 3.292C3.467 8.585 2 7.118 2 5.293zM5.262 0C2.349 0 0 2.377 0 5.293c0 2.916 2.35 5.292 5.262 5.292a5.216 5.216 0 0 0 3.173-1.07l2.28 2.297a.77.77 0 0 0 1.095 0 .784.784 0 0 0 0-1.104L9.52 8.402a5.292 5.292 0 0 0 1.004-3.11C10.524 2.378 8.174 0 5.262 0z" fill="#8D92A3"/></svg>