<svg width="16" height="16" viewBox="0 0 16 16" fill="none" xmlns="http://www.w3.org/2000/svg"><path d="M8 0C3.589 0 0 3.589 0 8s3.589 8 8 8 8-3.589 8-8-3.589-8-8-8zm0 1c3.86 0 7 3.14 7 7 0 1.608-.55 3.087-1.466 4.27a12.917 12.917 0 0 0-11.068 0A6.956 6.956 0 0 1 1 8c0-3.86 3.14-7 7-7zM3.167 13.052a11.908 11.908 0 0 1 9.666 0 6.97 6.97 0 0 1-9.666 0z" fill="#8D92A3"/><path d="M8 10c1.654 0 3-1.346 3-3S9.654 4 8 4 5 5.346 5 7s1.346 3 3 3zm0-5c1.103 0 2 .897 2 2s-.897 2-2 2-2-.897-2-2 .897-2 2-2z" fill="#8D92A3"/></svg>