<?xml version="1.0" standalone="no"?>
<!DOCTYPE svg PUBLIC "-//W3C//DTD SVG 1.1//EN" "http://www.w3.org/Graphics/SVG/1.1/DTD/svg11.dtd" >
<svg xmlns="http://www.w3.org/2000/svg">
<metadata>Generated by IcoMoon</metadata>
<defs>
<font id="icomoon" horiz-adv-x="1024">
<font-face units-per-em="1024" ascent="960" descent="-64" />
<missing-glyph horiz-adv-x="1024" />
<glyph unicode="&#x20;" horiz-adv-x="512" d="" />
<glyph unicode="&#xe900;" glyph-name="burger" d="M0 850.286h1024v-73.143h-1024v73.143zM0 484.571h1024v-73.143h-1024v73.143zM1024 118.857h-1024v-73.143h1024v73.143z" />
<glyph unicode="&#xe901;" glyph-name="cart" d="M921.6 704v-640c0-17.669-3.502-34.335-10.501-50.002-6.666-15.329-15.831-28.831-27.5-40.499-11.331-11.331-24.832-20.5-40.499-27.5-15.667-6.666-32.169-9.999-49.5-9.999h-576c-17.667 0-34.333 3.333-50 9.999-15.333 6.999-28.833 16.169-40.5 27.5-11.333 11.668-20.5 25.17-27.5 40.499-6.667 15.667-10 32.333-10 50.002v640h128v64c0 26.333 5 51.167 15 74.5 10.333 23.333 24.166 43.666 41.5 61s37.666 31 61 41c23.333 10.333 48.167 15.5 74.5 15.5 34.666 0 66.833-8.667 96.5-26 29.666 17.333 61.5 26 95.5 26 26.332 0 51.164-5.167 74.501-15.5 23.332-10 43.663-23.667 61-41 17.331-17.333 31.002-37.666 41.001-61 10.332-23.333 15.498-48.167 15.498-74.5v-64h128zM729.6 768c0 17.333-3.502 33.833-10.501 49.5-6.666 15.667-15.831 29.167-27.5 40.5-11.331 11.667-24.832 20.833-40.499 27.5-15.667 7-32.169 10.5-49.5 10.5-15 0-29.167-2.5-42.5-7.5 9.667-12 17.333-23.834 23-35.5s9.833-23.333 12.501-35c3-11.666 4.833-23.667 5.499-36 0.998-12 1.5-24.667 1.5-38v-40h128v64zM281.6 704h256v64c0 17.333-3.5 33.833-10.5 49.5-6.667 15.667-15.833 29.167-27.5 40.5-11.333 11.667-24.833 20.833-40.5 27.5-15.667 7-32.167 10.5-49.5 10.5-17.667 0-34.333-3.5-50-10.5-15.333-6.667-28.833-15.833-40.5-27.5-11.333-11.333-20.5-24.833-27.5-40.5-6.667-15.667-10-32.167-10-49.5v-64zM682.598 0c-11.331 19.999-16.998 41.334-16.998 64v576h-512v-576c0-9.001 1.667-17.331 5-25.001 3.333-7.665 7.833-14.5 13.5-20.5 6-5.663 12.833-10.163 20.5-13.496s16-5.002 25-5.002h464.998zM857.6 640h-128v-576c0-9.001 1.669-17.331 5.002-25.001 3.333-7.665 7.834-14.5 13.496-20.5 6.001-5.663 12.836-10.163 20.5-13.496 7.67-3.333 16-5.002 25.001-5.002s17.331 1.669 25.001 5.002c7.665 3.333 14.331 7.834 19.999 13.496 6.001 6.001 10.665 12.836 13.998 20.5 3.333 7.67 5.002 16 5.002 25.001v576z" />
<glyph unicode="&#xe902;" glyph-name="check" d="M848.308 816.769l-495.692-531.231-218.154 218.154-111.385-111.385 333.385-333.385 606.923 650.462z" />
<glyph unicode="&#xe903;" glyph-name="close" d="M93.087 960l930.876-930.911-93.089-93.089-930.875 930.909 93.087 93.091zM930.911 960l-930.872-930.911 93.087-93.089 930.874 930.909-93.089 93.091z" />
<glyph unicode="&#xe904;" glyph-name="close-menu" d="M93.087 960l930.876-930.911-93.089-93.089-930.875 930.909 93.087 93.091zM930.911 960l-930.872-930.911 93.087-93.089 930.874 930.909-93.089 93.091z" />
<glyph unicode="&#xe905;" glyph-name="compare" d="M483.556 960h56.889v-1024h-56.889v1024zM199.111 618.664h56.889v-682.664h-56.889v682.664zM824.889 448h-56.889v-512h56.889v512z" />
<glyph unicode="&#xe906;" glyph-name="dropdown-down" d="M126.75 769.25c-70.685-0.019-127.979-57.325-127.979-128.013 0-35.96 14.827-68.456 38.701-91.71l0.028-0.027 384-384c23.164-23.155 55.16-37.475 90.5-37.475s67.336 14.321 90.5 37.476l384 384c24.274 23.333 39.354 56.076 39.354 92.341 0 70.7-57.313 128.013-128.013 128.013-36.265 0-69.008-15.080-92.301-39.312l-0.040-0.042-293.5-293.5-293.5 293.5c-23.281 23.913-55.783 38.748-91.75 38.75v0z" />
<glyph unicode="&#xe907;" glyph-name="dropdown-up" d="M510 768c-34.615-0.569-65.802-14.791-88.499-37.499l-384.001-384.001c-24.274-23.333-39.354-56.076-39.354-92.341 0-70.7 57.313-128.013 128.013-128.013 36.265 0 69.008 15.080 92.301 39.312l0.040 0.042 293.5 293.5 293.5-293.5c23.333-24.274 56.076-39.354 92.341-39.354 70.7 0 128.013 57.313 128.013 128.013 0 36.265-15.080 69.008-39.312 92.301l-0.042 0.040-384 384c-23.168 23.178-55.18 37.515-90.54 37.515-0.689 0-1.377-0.005-2.064-0.016l0.104 0.001z" />
<glyph unicode="&#xe908;" glyph-name="favorite" d="M752 928c37.664 0 72.998-7.167 105.997-21.5 33.005-14.333 61.837-33.833 86.502-58.5 24.666-24.333 44-53.167 58.003-86.5 14.33-33 21.498-68.167 21.498-105.5 0-36.333-7.002-71.167-20.998-104.5-13.67-33.334-33.171-62.667-58.502-88l-432.499-431.999-432.5 431.999c-25.334 25.333-45 54.666-59 88-13.667 33.333-20.5 68.166-20.5 104.5 0 37.333 7 72.5 21 105.5 14.333 33.333 33.833 62.166 58.5 86.5 24.666 24.667 53.5 44.167 86.5 58.5s68.333 21.5 106 21.5c27.667 0 52.333-3.167 74-9.5s41.667-15.167 60-26.5c18.667-11 36.333-24.333 53-40 17-15.667 34.666-32.833 53-51.5 18.333 18.667 35.834 35.834 52.5 51.5 17 15.667 34.667 29 53 40 18.666 11.333 38.833 20.167 60.503 26.5 21.664 6.333 46.33 9.5 73.997 9.5zM899.002 509c19.667 19.667 34.662 42.167 44.998 67.5s15.501 51.834 15.501 79.5c0 29-5.331 56-16 81-10.669 25.334-25.498 47.167-44.499 65.5-18.669 18.667-40.666 33.167-66.003 43.5-24.998 10.667-52 16-80.998 16-28 0-52.832-4.5-74.502-13.5-21.664-8.666-41.664-20.166-59.997-34.5s-36-30.667-53-49c-16.666-17.999-34.166-36.333-52.5-55-18 18-35.5 36.166-52.5 54.5s-34.833 34.833-53.5 49.5c-18.333 14.667-38.5 26.667-60.5 36-21.667 9.333-46.167 14-73.5 14-28.667 0-55.667-5.5-81-16.5-25.334-10.667-47.5-25.5-66.5-44.5-18.666-18.667-33.5-40.667-44.5-66.001-10.667-25.333-16-52.333-16-81 0-27.667 5.167-54.166 15.5-79.5 10.666-25.333 25.833-47.833 45.5-67.5l387-387.003 387.002 387.003z" />
<glyph unicode="&#xe909;" glyph-name="favorite-added" d="M857.997 906.5c-32.998 14.333-68.333 21.5-105.997 21.5-27.667 0-52.333-3.167-73.997-9.5-21.67-6.333-41.837-15.167-60.503-26.5-18.333-11-36-24.333-53-40-16.666-15.667-34.166-32.833-52.5-51.5-18.333 18.667-36 35.834-53 51.5-16.667 15.667-34.333 29-53 40-18.333 11.333-38.333 20.167-60 26.5s-46.333 9.5-74 9.5c-37.667 0-73-7.167-106-21.5s-61.834-33.833-86.5-58.5c-24.667-24.333-44.167-53.167-58.5-86.5-14-33-21-68.167-21-105.5 0-36.333 6.833-71.167 20.5-104.5 14-33.334 33.667-62.667 59-88l432.5-431.999 432.499 431.999c25.331 25.333 44.832 54.666 58.502 88 13.997 33.333 20.998 68.166 20.998 104.5 0 37.333-7.168 72.5-21.498 105.5-14.003 33.333-33.338 62.166-58.003 86.5-24.666 24.667-53.498 44.167-86.502 58.5z" />
<glyph unicode="&#xe90a;" glyph-name="go-right" d="M598.5 820.367l374.498-374.5-374.498-374.501-45 45.001 297 297.499h-786.5v64h786.5l-297 297.5 45 45z" />
<glyph unicode="&#xe90b;" glyph-name="instagram" d="M662.588 448c0-83.163-67.425-150.588-150.588-150.588s-150.588 67.425-150.588 150.588c0 83.163 67.425 150.588 150.588 150.588s150.588-67.425 150.588-150.588zM798.118 960h-572.235c-124.559 0-225.882-101.324-225.882-225.882v-572.235c0-124.561 101.324-225.882 225.882-225.882h572.235c124.561 0 225.882 101.322 225.882 225.882v572.235c0 124.559-101.322 225.882-225.882 225.882zM512 165.647c-155.691 0-282.353 126.663-282.353 282.353s126.662 282.353 282.353 282.353c155.69 0 282.353-126.662 282.353-282.353s-126.663-282.353-282.353-282.353zM835.765 715.294c-31.19 0-56.471 25.28-56.471 56.471s25.281 56.471 56.471 56.471c31.19 0 56.471-25.28 56.471-56.471s-25.281-56.471-56.471-56.471z" />
<glyph unicode="&#xe90c;" glyph-name="location" horiz-adv-x="723" d="M361.412 960c-269.468 0-443.106-289.361-322.334-531.020l185.459-404.482c54.14-118.085 219.687-117.911 273.748 0l185.464 404.488c120.784 241.726-52.923 531.014-322.337 531.014zM361.412 708.497c62.264 0 112.917-51.331 112.917-114.428 0-63.095-50.653-114.426-112.917-114.426s-112.918 51.331-112.918 114.426c0 63.095 50.653 114.428 112.918 114.428z" />
<glyph unicode="&#xe90d;" glyph-name="map" d="M192 768v-64h640v64zM192 512v-64h384v64zM192 256v-64h640v64z" />
<glyph unicode="&#xe90e;" glyph-name="phone" d="M995.376 153.522l-156.311 156.678c-31.13 31.075-82.691 30.136-114.911-2.168l-78.746-78.908c-4.975 2.747-10.126 5.62-15.541 8.662-49.727 27.618-117.79 65.47-189.411 137.305-71.834 71.988-109.635 140.309-137.273 190.183-2.917 5.284-5.711 10.378-8.47 15.216l78.835 78.967c32.267 32.349 33.158 84.010 2.097 115.179l-156.308 156.696c-31.061 31.125-82.642 30.181-114.91-2.168l-44.052-44.406 1.204-1.198c-14.771-18.891-27.115-40.679-36.301-64.174-8.467-22.365-13.739-43.707-16.15-65.093-20.639-171.493 57.55-328.225 269.749-540.909 293.322-293.96 529.703-271.758 539.9-270.673 22.209 2.662 43.49 7.981 65.12 16.402 23.245 9.096 44.966 21.45 63.801 36.226l0.964-0.855 44.628 43.797c32.202 32.346 33.129 84.022 2.084 115.242z" />
<glyph unicode="&#xe90f;" glyph-name="plus" d="M959.023 497.897v-94.953h-427.287v-462.103h-104.448v462.103h-427.287v94.953h427.287v462.103h104.448v-462.103h427.287z" />
<glyph unicode="&#xe910;" glyph-name="search" d="M157.557 543.097c0 143.781 115.563 259.36 256.917 259.36s256.916-115.58 256.916-259.36c0-143.781-115.563-259.36-256.916-259.36s-256.917 115.58-256.917 259.36zM414.474 959.995c-229.435 0-414.455-187.191-414.455-416.899s185.020-416.9 414.455-416.9c93.974 0 180.497 31.405 249.907 84.272l179.56-180.867c23.836-24.009 62.48-24.009 86.315 0s23.836 62.929 0 86.938l-180.348 181.666c49.725 68.823 79.019 153.492 79.019 244.891 0 229.708-185.019 416.899-414.454 416.899z" />
<glyph unicode="&#xe911;" glyph-name="slider-left" d="M710.769 960.769c-0.557 0.014-1.212 0.022-1.87 0.022-23.474 0-44.549-10.267-58.982-26.555l-0.072-0.082-393.846-433.231c-12.668-13.928-20.425-32.52-20.425-52.923s7.757-38.995 20.482-52.987l-0.057 0.064 393.846-433.231c14.534-16.903 35.944-27.541 59.839-27.541 43.507 0 78.777 35.27 78.777 78.777 0 21.215-8.386 40.472-22.025 54.635l0.024-0.025-345.692 380.308 345.692 380.308c13.102 14.030 21.147 32.93 21.147 53.708 0 42.826-34.173 77.67-76.739 78.751l-0.1 0.002z" />
<glyph unicode="&#xe912;" glyph-name="slider-right" d="M310.154 960.769c-41.678-2.275-74.612-36.625-74.612-78.667 0-20.82 8.077-39.754 21.268-53.838l-0.041 0.044 345.692-380.308-345.692-380.308c-13.615-14.139-22.001-33.395-22.001-54.611 0-43.507 35.27-78.777 78.777-78.777 23.895 0 45.305 10.639 59.752 27.438l0.087 0.104 393.846 433.231c12.668 13.928 20.425 32.52 20.425 52.923s-7.757 38.995-20.482 52.987l0.057-0.064-393.846 433.231c-14.507 16.421-35.615 26.722-59.128 26.722-1.443 0-2.877-0.039-4.301-0.115l0.199 0.009z" />
<glyph unicode="&#xe913;" glyph-name="user" d="M512 960c-282.312 0-512-229.688-512-512 0-282.31 229.688-512 512-512 282.31 0 512 229.69 512 512 0 282.312-229.69 512-512 512zM512 895.999c247.034 0 448-200.969 448-447.999 0-102.915-35.238-197.549-93.798-273.267-224.608 106.298-483.797 106.298-708.403 0-58.559 75.718-93.798 170.353-93.798 273.267 0 247.030 200.969 447.999 447.999 447.999zM202.691 124.698c197.446 87.456 421.172 87.456 618.621 0-80.499-77.043-189.35-124.698-309.312-124.698s-228.813 47.654-309.309 124.698zM512 320c105.875 0 192 86.124 192 192s-86.125 192-192 192c-105.874 0-192-86.124-192-192s86.126-192 192-192zM512 639.999c70.595 0 128-57.407 128-127.999 0-70.595-57.407-127.999-128-127.999-70.595 0-127.999 57.407-127.999 127.999s57.407 127.999 127.999 127.999z" />
<glyph unicode="&#xe914;" glyph-name="breadcrumb" horiz-adv-x="683" d="M120.5 960l508.5-508.5-508.5-508.5-120.5 121 387.5 387.5-387.5 387.5 120.5 121z" />
</font>
</defs>
</svg>
