<svg width="17" height="20" viewBox="0 0 17 20" fill="none" xmlns="http://www.w3.org/2000/svg">
<path d="M16.5 5V17.5C16.5 17.8451 16.4316 18.1706 16.2949 18.4766C16.1647 18.776 15.9857 19.0397 15.7578 19.2676C15.5365 19.4889 15.2728 19.668 14.9668 19.8047C14.6608 19.9349 14.3385 20 14 20H2.75C2.40495 20 2.07943 19.9349 1.77344 19.8047C1.47396 19.668 1.21029 19.4889 0.982422 19.2676C0.761068 19.0397 0.582031 18.776 0.445312 18.4766C0.315104 18.1706 0.25 17.8451 0.25 17.5V5H2.75V3.75C2.75 3.23568 2.84766 2.75065 3.04297 2.29492C3.24479 1.83919 3.51497 1.44206 3.85352 1.10352C4.19206 0.764974 4.58919 0.498047 5.04492 0.302734C5.50065 0.100911 5.98568 0 6.5 0C7.17708 0 7.80534 0.169271 8.38477 0.507812C8.96419 0.169271 9.58594 0 10.25 0C10.7643 0 11.2493 0.100911 11.7051 0.302734C12.1608 0.498047 12.5579 0.764974 12.8965 1.10352C13.235 1.44206 13.502 1.83919 13.6973 2.29492C13.8991 2.75065 14 3.23568 14 3.75V5H16.5ZM12.75 3.75C12.75 3.41146 12.6816 3.08919 12.5449 2.7832C12.4147 2.47721 12.2357 2.21354 12.0078 1.99219C11.7865 1.76432 11.5228 1.58529 11.2168 1.45508C10.9108 1.31836 10.5885 1.25 10.25 1.25C9.95703 1.25 9.68034 1.29883 9.41992 1.39648C9.60872 1.63086 9.75846 1.86198 9.86914 2.08984C9.97982 2.31771 10.0612 2.54557 10.1133 2.77344C10.1719 3.0013 10.2077 3.23568 10.2207 3.47656C10.2402 3.71094 10.25 3.95833 10.25 4.21875V5H12.75V3.75ZM4 5H9V3.75C9 3.41146 8.93164 3.08919 8.79492 2.7832C8.66471 2.47721 8.48568 2.21354 8.25781 1.99219C8.03646 1.76432 7.77279 1.58529 7.4668 1.45508C7.16081 1.31836 6.83854 1.25 6.5 1.25C6.15495 1.25 5.82943 1.31836 5.52344 1.45508C5.22396 1.58529 4.96029 1.76432 4.73242 1.99219C4.51107 2.21354 4.33203 2.47721 4.19531 2.7832C4.0651 3.08919 4 3.41146 4 3.75V5ZM11.832 18.75C11.6107 18.3594 11.5 17.9427 11.5 17.5V6.25H1.5V17.5C1.5 17.6758 1.53255 17.8385 1.59766 17.9883C1.66276 18.138 1.75065 18.2715 1.86133 18.3887C1.97852 18.4993 2.11198 18.5872 2.26172 18.6523C2.41146 18.7174 2.57422 18.75 2.75 18.75H11.832ZM15.25 6.25H12.75V17.5C12.75 17.6758 12.7826 17.8385 12.8477 17.9883C12.9128 18.138 13.0007 18.2715 13.1113 18.3887C13.2285 18.4993 13.362 18.5872 13.5117 18.6523C13.6615 18.7174 13.8242 18.75 14 18.75C14.1758 18.75 14.3385 18.7174 14.4883 18.6523C14.638 18.5872 14.7682 18.4993 14.8789 18.3887C14.9961 18.2715 15.0872 18.138 15.1523 17.9883C15.2174 17.8385 15.25 17.6758 15.25 17.5V6.25Z" fill="white"/>
</svg>
