<svg width="16" height="15" viewBox="0 0 16 15" fill="none" xmlns="http://www.w3.org/2000/svg">
<path d="M13.4062 0.335938C12.8906 0.111979 12.3385 0 11.75 0C11.3177 0 10.9323 0.0494792 10.5938 0.148438C10.2552 0.247396 9.9401 0.385417 9.64844 0.5625C9.36198 0.734375 9.08594 0.942708 8.82031 1.1875C8.5599 1.43229 8.28646 1.70052 8 1.99219C7.71354 1.70052 7.4375 1.43229 7.17188 1.1875C6.91146 0.942708 6.63542 0.734375 6.34375 0.5625C6.05729 0.385417 5.74479 0.247396 5.40625 0.148438C5.06771 0.0494792 4.68229 0 4.25 0C3.66146 0 3.10938 0.111979 2.59375 0.335938C2.07812 0.559896 1.6276 0.864583 1.24219 1.25C0.856771 1.63021 0.552083 2.08073 0.328125 2.60156C0.109375 3.11719 0 3.66667 0 4.25C0 4.81771 0.106771 5.36198 0.320312 5.88281C0.539062 6.40365 0.846354 6.86198 1.24219 7.25781L8 14.0078L14.7578 7.25781C15.1536 6.86198 15.4583 6.40365 15.6719 5.88281C15.8906 5.36198 16 4.81771 16 4.25C16 3.66667 15.888 3.11719 15.6641 2.60156C15.4453 2.08073 15.1432 1.63021 14.7578 1.25C14.3724 0.864583 13.9219 0.559896 13.4062 0.335938Z" fill="white"/>
</svg>
