<svg width="16" height="15" viewBox="0 0 16 15" fill="none" xmlns="http://www.w3.org/2000/svg">
<path d="M11.75 0C12.3385 0 12.8906 0.111979 13.4062 0.335938C13.9219 0.559896 14.3724 0.864583 14.7578 1.25C15.1432 1.63021 15.4453 2.08073 15.6641 2.60156C15.888 3.11719 16 3.66667 16 4.25C16 4.81771 15.8906 5.36198 15.6719 5.88281C15.4583 6.40365 15.1536 6.86198 14.7578 7.25781L8 14.0078L1.24219 7.25781C0.846354 6.86198 0.539062 6.40365 0.320312 5.88281C0.106771 5.36198 0 4.81771 0 4.25C0 3.66667 0.109375 3.11719 0.328125 2.60156C0.552083 2.08073 0.856771 1.63021 1.24219 1.25C1.6276 0.864583 2.07812 0.559896 2.59375 0.335938C3.10938 0.111979 3.66146 0 4.25 0C4.68229 0 5.06771 0.0494792 5.40625 0.148438C5.74479 0.247396 6.05729 0.385417 6.34375 0.5625C6.63542 0.734375 6.91146 0.942708 7.17188 1.1875C7.4375 1.43229 7.71354 1.70052 8 1.99219C8.28646 1.70052 8.5599 1.43229 8.82031 1.1875C9.08594 0.942708 9.36198 0.734375 9.64844 0.5625C9.9401 0.385417 10.2552 0.247396 10.5938 0.148438C10.9323 0.0494792 11.3177 0 11.75 0ZM14.0469 6.54688C14.3542 6.23958 14.5885 5.88802 14.75 5.49219C14.9115 5.09635 14.9922 4.68229 14.9922 4.25C14.9922 3.79688 14.9089 3.375 14.7422 2.98438C14.5755 2.58854 14.3438 2.2474 14.0469 1.96094C13.7552 1.66927 13.4115 1.44271 13.0156 1.28125C12.625 1.11458 12.2031 1.03125 11.75 1.03125C11.3125 1.03125 10.9245 1.10156 10.5859 1.24219C10.2474 1.3776 9.9349 1.55729 9.64844 1.78125C9.36198 2.00521 9.08594 2.26042 8.82031 2.54688C8.5599 2.82812 8.28646 3.11458 8 3.40625C7.71875 3.125 7.44531 2.84115 7.17969 2.55469C6.91406 2.26823 6.63542 2.01042 6.34375 1.78125C6.05729 1.55208 5.74219 1.36458 5.39844 1.21875C5.0599 1.07292 4.67708 1 4.25 1C3.80208 1 3.38021 1.08594 2.98438 1.25781C2.58854 1.42448 2.24219 1.65625 1.94531 1.95312C1.65365 2.24479 1.42188 2.58854 1.25 2.98438C1.08333 3.38021 1 3.80208 1 4.25C1 4.68229 1.08073 5.09635 1.24219 5.49219C1.40885 5.88802 1.64583 6.23958 1.95312 6.54688L8 12.5938L14.0469 6.54688Z" fill="#911C2C"/>
</svg>
