<?xml version="1.0" encoding="UTF-8" standalone="no"?>
<svg
   xmlns:dc="http://purl.org/dc/elements/1.1/"
   xmlns:cc="http://creativecommons.org/ns#"
   xmlns:rdf="http://www.w3.org/1999/02/22-rdf-syntax-ns#"
   xmlns:svg="http://www.w3.org/2000/svg"
   xmlns="http://www.w3.org/2000/svg"
   xmlns:sodipodi="http://sodipodi.sourceforge.net/DTD/sodipodi-0.dtd"
   xmlns:inkscape="http://www.inkscape.org/namespaces/inkscape"
   width="16"
   height="15"
   viewBox="0 0 16 15"
   fill="none"
   version="1.1"
   id="svg22"
   sodipodi:docname="filter.svg"
   inkscape:version="0.92.4 (5da689c313, 2019-01-14)">
  <metadata
     id="metadata28">
    <rdf:RDF>
      <cc:Work
         rdf:about="">
        <dc:format>image/svg+xml</dc:format>
        <dc:type
           rdf:resource="http://purl.org/dc/dcmitype/StillImage" />
        <dc:title></dc:title>
      </cc:Work>
    </rdf:RDF>
  </metadata>
  <defs
     id="defs26" />
  <sodipodi:namedview
     pagecolor="#ffffff"
     bordercolor="#666666"
     borderopacity="1"
     objecttolerance="10"
     gridtolerance="10"
     guidetolerance="10"
     inkscape:pageopacity="0"
     inkscape:pageshadow="2"
     inkscape:window-width="1920"
     inkscape:window-height="1017"
     id="namedview24"
     showgrid="false"
     inkscape:zoom="32"
     inkscape:cx="12.579835"
     inkscape:cy="10.709512"
     inkscape:window-x="1912"
     inkscape:window-y="-8"
     inkscape:window-maximized="1"
     inkscape:current-layer="svg22" />
  <path
     style="color:#000000;font-style:normal;font-variant:normal;font-weight:normal;font-stretch:normal;font-size:medium;line-height:normal;font-family:sans-serif;font-variant-ligatures:normal;font-variant-position:normal;font-variant-caps:normal;font-variant-numeric:normal;font-variant-alternates:normal;font-feature-settings:normal;text-indent:0;text-align:start;text-decoration:none;text-decoration-line:none;text-decoration-style:solid;text-decoration-color:#000000;letter-spacing:normal;word-spacing:normal;text-transform:none;writing-mode:lr-tb;direction:ltr;text-orientation:mixed;dominant-baseline:auto;baseline-shift:baseline;text-anchor:start;white-space:normal;shape-padding:0;clip-rule:nonzero;display:inline;overflow:visible;visibility:visible;opacity:1;isolation:auto;mix-blend-mode:normal;color-interpolation:sRGB;color-interpolation-filters:linearRGB;solid-color:#000000;solid-opacity:1;vector-effect:none;fill:#911c2c;fill-opacity:1;fill-rule:nonzero;stroke:none;stroke-width:1.5;stroke-linecap:butt;stroke-linejoin:miter;stroke-miterlimit:4;stroke-dasharray:none;stroke-dashoffset:0;stroke-opacity:1;color-rendering:auto;image-rendering:auto;shape-rendering:auto;text-rendering:auto;enable-background:accumulate"
     d="M 2.4355469,0.5 C 1.0374366,0.5 0.23466014,2.2451128 1.1445312,3.3066406 l 4.0703126,4.7480469 v 4.7851565 c 0,0.831796 0.5874177,1.396334 1.3437499,1.499999 l 0.3730469,-0.0039 0.3691406,-0.03516 0.5957032,-0.212891 0.2988281,-0.146485 1.6992187,-0.83789 c 0.5446838,-0.26885 0.8906248,-0.828199 0.8906248,-1.435547 V 8.0546875 L 14.367188,3.875 14.611328,3.5898438 14.855469,3.3066406 c 4.23e-4,-4.943e-4 -4.23e-4,-0.00146 0,-0.00195 L 15.34375,2.7363281 v 0 C 15.471016,2.5178633 15.577137,2.1195195 15.549631,1.8419287 15.523696,1.5801845 15.3731,1.2451044 15.305792,1.155688 14.815456,0.50428945 14.732497,0.5 13.564453,0.5 Z m 0,1.5 H 13.564453 c 0.225098,0 0.298861,0.1591401 0.152344,0.3300781 L 13.228516,2.9003906 9.2851562,7.5 v 4.167969 c 0,0.03965 -0.019131,0.07229 -0.054687,0.08984 L 7.53125,12.597656 6.859375,12.929688 c -0.09423,0.04652 -0.1445313,0.01531 -0.1445312,-0.08984 V 7.5 L 2.2832031,2.3300781 C 2.1366742,2.1591259 2.2103972,2 2.4355469,2 Z"
     id="path20"
     inkscape:connector-curvature="0"
     sodipodi:nodetypes="sccsccccccscccccccsssssscccscccsccs" />
</svg>
