<svg width="17" height="17" viewBox="0 0 17 17" fill="none" xmlns="http://www.w3.org/2000/svg">
<path d="M11 8.5C11 9.88064 9.88064 11 8.5 11C7.11936 11 6 9.88064 6 8.5C6 7.11936 7.11936 6 8.5 6C9.88064 6 11 7.11936 11 8.5Z" fill="#DBDBDB"/>
<path d="M13.25 0H3.75C1.68213 0 0 1.68213 0 3.75V13.25C0 15.3179 1.68213 17 3.75 17H13.25C15.3179 17 17 15.3179 17 13.25V3.75C17 1.68213 15.3179 0 13.25 0ZM8.5 13.1875C5.91528 13.1875 3.8125 11.0847 3.8125 8.5C3.8125 5.91528 5.91528 3.8125 8.5 3.8125C11.0847 3.8125 13.1875 5.91528 13.1875 8.5C13.1875 11.0847 11.0847 13.1875 8.5 13.1875ZM13.875 4.0625C13.3572 4.0625 12.9375 3.64282 12.9375 3.125C12.9375 2.60718 13.3572 2.1875 13.875 2.1875C14.3928 2.1875 14.8125 2.60718 14.8125 3.125C14.8125 3.64282 14.3928 4.0625 13.875 4.0625Z" fill="#DBDBDB"/>
</svg>
