<svg width="17" height="17" viewBox="0 0 17 17" fill="none" xmlns="http://www.w3.org/2000/svg">
<path d="M16.5248 13.3888L13.9298 10.7877C13.413 10.2718 12.557 10.2874 12.0221 10.8237L10.7148 12.1337C10.6322 12.0881 10.5467 12.0404 10.4568 11.9899C9.63125 11.5314 8.50131 10.903 7.31228 9.71042C6.11973 8.51531 5.49217 7.38107 5.03333 6.55309C4.98491 6.46537 4.93852 6.3808 4.89271 6.30048L5.77013 5.42238L6.2015 4.9895C6.73719 4.45245 6.75197 3.59481 6.23631 3.07735L3.64136 0.475945C3.1257 -0.0407858 2.26937 -0.0251097 1.73368 0.511942L1.00234 1.24915L1.02232 1.26904C0.777092 1.58266 0.57217 1.94437 0.419674 2.33443C0.279101 2.70572 0.191581 3.06003 0.151562 3.41507C-0.191084 6.26212 1.10699 8.86411 4.62981 12.395C9.49941 17.2752 13.4237 16.9066 13.593 16.8886C13.9617 16.8444 14.315 16.7561 14.6741 16.6163C15.06 16.4653 15.4206 16.2602 15.7333 16.0149L15.7493 16.0291L16.4902 15.302C17.0248 14.765 17.0402 13.9071 16.5248 13.3888Z" fill="#DBDBDB"/>
</svg>
