<svg width="13" height="13" viewBox="0 0 13 13" fill="none" xmlns="http://www.w3.org/2000/svg">
<path opacity="0.8" fill-rule="evenodd" clip-rule="evenodd" d="M2.00024 5.29272C2.00024 3.46738 3.46735 2.00006 5.26188 2.00006C7.0564 2.00006 8.52351 3.46738 8.52351 5.29272C8.52351 7.11806 7.0564 8.58538 5.26188 8.58538C3.46735 8.58538 2.00024 7.11806 2.00024 5.29272ZM5.26188 5.81741e-05C2.34913 5.81741e-05 0.000244141 2.37651 0.000244141 5.29272C0.000244141 8.20892 2.34913 10.5854 5.26188 10.5854C6.45491 10.5854 7.55335 10.1867 8.43453 9.51554L10.7141 11.8117C11.0167 12.1165 11.5073 12.1165 11.8099 11.8117C12.1125 11.5069 12.1125 11.0128 11.8099 10.708L9.52033 8.40169C10.1516 7.52796 10.5235 6.45306 10.5235 5.29272C10.5235 2.37651 8.17463 5.81741e-05 5.26188 5.81741e-05Z" fill="#8D92A3"/>
</svg>
