<svg width="16" height="16" viewBox="0 0 16 16" fill="none" xmlns="http://www.w3.org/2000/svg">
<path d="M8 0C3.58887 0 0 3.58887 0 8C0 12.4111 3.58887 16 8 16C12.4111 16 16 12.4111 16 8C16 3.58887 12.4111 0 8 0ZM8 1.00001C11.8599 1.00001 15 4.14015 15 8C15 9.60804 14.4494 11.0867 13.5344 12.2698C10.0249 10.6089 5.97507 10.6089 2.4656 12.2698C1.55062 11.0867 1.00001 9.60804 1.00001 8C1.00001 4.14015 4.14015 1.00001 8 1.00001ZM3.16705 13.0516C6.25214 11.6851 9.74786 11.6851 12.833 13.0516C11.5752 14.2554 9.8744 15 8 15C6.1256 15 4.4248 14.2554 3.16705 13.0516Z" fill="#8D92A3"/>
<path d="M8 10C9.65429 10 11 8.65432 11 7C11 5.34568 9.65429 4 8 4C6.34572 4 5 5.34568 5 7C5 8.65432 6.34572 10 8 10ZM8 5.00001C9.10305 5.00001 10 5.89699 10 7C10 8.10304 9.10302 8.99999 8 8.99999C6.89696 8.99999 6.00001 8.10301 6.00001 7C6.00001 5.89699 6.89699 5.00001 8 5.00001Z" fill="#8D92A3"/>
</svg>
